# xmcd
#
# Track frame offsets:
# 150
# 16910
# 34592
# 53312
# 73197
# 96187
# 116762
# 133305
# 155100
# 171157
#
# Disc length: 2459 seconds
#
#
# Revision: 0
# Processed by: cddbd v1.5.1PL0 Copyright (c) Steve Scherf et al.
# Submitted via: FreeRIP 2.90 
#
DISCID=8509990a
DTITLE=Rodney Crowell - Country Classics
DYEAR=1900
DGENRE=Country
TTITLE0=Stars on the Water
TTITLE1=I Don't Have to Crawl
TTITLE2=Ashes by Now
TTITLE3=Elvira
TTITLE4='Til I Gain Control
TTITLE5=Shame on The Moon
TTITLE6=Queen of Hearts
TTITLE7=I Ain't Living
TTITLE8=Heartbroke
TTITLE9=Victim or A Fool
EXTD=
EXTT0=
EXTT1=
EXTT2=
EXTT3=
EXTT4=
EXTT5=
EXTT6=
EXTT7=
EXTT8=
EXTT9=
PLAYORDER=
